<?xml version="1.0" encoding="UTF-8"?>
<svg id="Ebene_2" data-name="Ebene 2" xmlns="http://www.w3.org/2000/svg" viewBox="0 0 509.59 501.52">
  <g id="Layer_1" data-name="Layer 1">
    <path d="M487.79,501.52h-169.99c-12.02,0-21.8-9.78-21.8-21.79v-168.9c0-2.87-2.34-5.21-5.21-5.21h-72.01c-2.87,0-5.21,2.34-5.21,5.21v168.9c0,12.01-9.78,21.79-21.8,21.79H21.8c-12.02,0-21.8-9.78-21.8-21.79V144.47c0-6.66,3.61-12.81,9.41-16.06L224.48,7.86c18.7-10.48,41.93-10.48,60.63,0l215.07,120.55c5.81,3.25,9.41,9.41,9.41,16.06v335.26c0,12.01-9.78,21.79-21.8,21.79ZM218.79,289.04h72.01c12.02,0,21.8,9.78,21.8,21.79v168.9c0,2.87,2.34,5.21,5.21,5.21h169.99c2.87,0,5.21-2.34,5.21-5.21V144.47c0-.66-.36-1.28-.94-1.6L277,22.32c-13.7-7.68-30.71-7.68-44.41,0L17.53,142.87c-.58.33-.94.94-.94,1.6v335.26c0,2.87,2.34,5.21,5.21,5.21h169.99c2.87,0,5.21-2.34,5.21-5.21v-168.9c0-12.01,9.78-21.79,21.8-21.79Z"/>
  </g>
</svg>