<?xml version="1.0" encoding="UTF-8"?>
<svg id="Ebene_2" data-name="Ebene 2" xmlns="http://www.w3.org/2000/svg" viewBox="0 0 226.24 226.24">
  <defs>
    <style>
      .cls-1 {
        fill: #1d1d1b;
      }
    </style>
  </defs>
  <g id="Layer_1" data-name="Layer 1">
    <g>
      <path class="cls-1" d="M86.08,60.73c-7.41-4.39-13.47-.94-13.47,7.67v89.44c0,8.61,6.06,12.06,13.47,7.67l74.85-44.4c7.41-4.39,7.41-11.59,0-15.98l-74.85-44.4Z"/>
      <path class="cls-1" d="M167.44,226.24H58.8c-32.42,0-58.8-26.38-58.8-58.8V58.8C0,26.38,26.38,0,58.8,0h108.64c32.42,0,58.8,26.38,58.8,58.8v108.64c0,32.42-26.38,58.8-58.8,58.8ZM58.8,15c-24.15,0-43.8,19.65-43.8,43.8v108.64c0,24.15,19.65,43.8,43.8,43.8h108.64c24.15,0,43.8-19.65,43.8-43.8V58.8c0-24.15-19.65-43.8-43.8-43.8H58.8Z"/>
    </g>
  </g>
</svg>