<?xml version="1.0" encoding="UTF-8"?>
<svg id="Ebene_2" data-name="Ebene 2" xmlns="http://www.w3.org/2000/svg" viewBox="0 0 237.26 207.06">
  <g id="Layer_1" data-name="Layer 1">
    <g>
      <path d="M11.77,142.03c.71,0,1.43-.14,2.12-.43,2.77-1.17,4.06-4.37,2.89-7.14-3.91-9.21-5.89-19-5.89-29.09,0-41.12,33.45-74.57,74.57-74.57h84.41v19.91l39.23-25.35L169.88,0v19.91h-84.41C38.34,19.91,0,58.24,0,105.36c0,11.57,2.27,22.79,6.75,33.35.88,2.07,2.9,3.32,5.02,3.32Z"/>
      <path d="M226.36,101.7c0,41.11-33.45,74.56-74.57,74.56h-84.41v-19.91l-39.24,25.35,39.24,25.35v-19.91h84.41c47.13,0,85.47-38.34,85.47-85.46,0-11.57-2.27-22.79-6.75-33.35-1.17-2.77-4.37-4.06-7.14-2.89-2.77,1.17-4.06,4.37-2.89,7.14,3.91,9.21,5.89,19,5.89,29.09Z"/>
    </g>
  </g>
</svg>