<?xml version="1.0" encoding="UTF-8"?>
<svg id="Ebene_2" data-name="Ebene 2" xmlns="http://www.w3.org/2000/svg" viewBox="0 0 486.81 469.24">
  <g id="Layer_1" data-name="Layer 1">
    <g>
      <path d="M90.23,469.24c-49.75,0-90.23-40.47-90.23-90.21s40.48-90.2,90.23-90.2,90.23,40.46,90.23,90.2-40.48,90.21-90.23,90.21ZM90.23,305.87c-40.36,0-73.19,32.83-73.19,73.17s32.83,73.17,73.19,73.17,73.19-32.82,73.19-73.17-32.83-73.17-73.19-73.17Z"/>
      <path d="M396.57,412.34c-49.75,0-90.23-40.47-90.23-90.21s40.48-90.21,90.23-90.21,90.23,40.47,90.23,90.21-40.48,90.21-90.23,90.21ZM396.57,248.96c-40.36,0-73.19,32.82-73.19,73.17s32.83,73.17,73.19,73.17,73.19-32.82,73.19-73.17-32.83-73.17-73.19-73.17Z"/>
      <path d="M171.95,387.55c-4.71,0-8.52-3.81-8.52-8.52V72.7c0-4.03,2.83-7.51,6.77-8.34L476.54.18c2.51-.52,5.12.11,7.12,1.73,1.99,1.62,3.15,4.05,3.15,6.61v313.62c0,4.7-3.81,8.52-8.52,8.52s-8.52-3.81-8.52-8.52V19l-289.3,60.61v299.42c0,4.7-3.81,8.52-8.52,8.52Z"/>
    </g>
  </g>
</svg>