<?xml version="1.0" encoding="UTF-8"?>
<svg id="Ebene_2" data-name="Ebene 2" xmlns="http://www.w3.org/2000/svg" viewBox="0 0 243.24 198.8">
  <g id="Layer_1" data-name="Layer 1">
    <g>
      <path d="M241.65,57.7c-2.13-2.13-5.57-2.13-7.7,0l-34,34-34-34c-2.13-2.13-5.57-2.13-7.7,0-2.13,2.13-2.13,5.57,0,7.7l34,34-34,34c-2.13,2.13-2.13,5.57,0,7.7,1.06,1.06,2.46,1.6,3.85,1.6s2.79-.53,3.85-1.6l34-34,34,34c1.06,1.06,2.46,1.6,3.85,1.6s2.79-.53,3.85-1.6c2.13-2.13,2.13-5.57,0-7.7l-34-34,34-34c2.13-2.13,2.13-5.57,0-7.7Z"/>
      <path d="M133.45.73c-1.69-.97-3.77-.97-5.45,0L51.65,44.93H5.45c-3.01,0-5.45,2.44-5.45,5.45v98.04c0,3.01,2.44,5.45,5.45,5.45h46.2l76.36,44.2c.84.49,1.79.73,2.73.73s1.88-.24,2.72-.73c1.69-.97,2.73-2.77,2.73-4.72V5.45c0-1.95-1.04-3.75-2.73-4.72ZM125.28,183.91l-69.45-40.2c-.83-.48-1.77-.73-2.73-.73H10.89V55.83h42.22c.96,0,1.9-.25,2.73-.73L125.28,14.89v169.02Z"/>
    </g>
  </g>
</svg>