<?xml version="1.0" encoding="UTF-8"?>
<svg id="Ebene_2" data-name="Ebene 2" xmlns="http://www.w3.org/2000/svg" viewBox="0 0 226.24 226.24">
  <defs>
    <style>
      .cls-1 {
        fill: #1d1d1b;
      }
    </style>
  </defs>
  <g id="Layer_1" data-name="Layer 1">
    <g>
      <g>
        <path class="cls-1" d="M76.79,63.74h14.48c5.76,0,10.44,4.68,10.44,10.44v77.89c0,5.76-4.68,10.44-10.44,10.44h-14.48c-5.76,0-10.44-4.68-10.44-10.44v-77.89c0-5.76,4.68-10.44,10.44-10.44Z"/>
        <rect class="cls-1" x="124.54" y="63.74" width="35.35" height="98.77" rx="10.44" ry="10.44"/>
      </g>
      <path class="cls-1" d="M167.44,226.24H58.8c-32.42,0-58.8-26.38-58.8-58.8V58.8C0,26.38,26.38,0,58.8,0h108.64c32.42,0,58.8,26.38,58.8,58.8v108.64c0,32.42-26.38,58.8-58.8,58.8ZM58.8,15c-24.15,0-43.8,19.65-43.8,43.8v108.64c0,24.15,19.65,43.8,43.8,43.8h108.64c24.15,0,43.8-19.65,43.8-43.8V58.8c0-24.15-19.65-43.8-43.8-43.8H58.8Z"/>
    </g>
  </g>
</svg>