<?xml version="1.0" encoding="UTF-8"?>
<svg id="Ebene_2" data-name="Ebene 2" xmlns="http://www.w3.org/2000/svg" viewBox="0 0 468.11 471.87">
  <g id="Layer_1" data-name="Layer 1">
    <g>
      <path d="M8.29,471.86c-4.58,0-8.29-3.71-8.29-8.29V8.29C0,3.71,3.71,0,8.29,0s8.29,3.71,8.29,8.29v455.28c0,4.58-3.71,8.29-8.29,8.29Z"/>
      <path d="M140.64,471.86c-4.58,0-8.29-3.71-8.29-8.29V8.29C132.34,3.71,136.06,0,140.64,0s8.29,3.71,8.29,8.29v455.28c0,4.58-3.71,8.29-8.29,8.29Z"/>
      <path d="M459.82,471.87c-3.18,0-6.21-1.84-7.58-4.93L249.83,11.66c-1.86-4.18.02-9.08,4.21-10.94,4.19-1.85,9.09.03,10.94,4.21l202.41,455.28c1.86,4.18-.02,9.08-4.21,10.94-1.09.48-2.24.72-3.36.72Z"/>
    </g>
  </g>
</svg>