<?xml version="1.0" encoding="UTF-8"?>
<svg id="Ebene_2" data-name="Ebene 2" xmlns="http://www.w3.org/2000/svg" viewBox="0 0 227.24 194.36">
  <g id="Layer_1" data-name="Layer 1">
    <g>
      <path d="M5.45,174.45c31.25,0,56.15-31.39,82.52-64.62,28.96-36.51,58.85-74.17,100.04-78.59v19.46l39.23-25.35L188.01,0v20.35c-46.38,4.39-79.34,45.85-108.58,82.72-24.68,31.11-47.99,60.5-73.98,60.5-3.01,0-5.45,2.44-5.45,5.45s2.44,5.45,5.45,5.45Z"/>
      <path d="M227.24,169.01l-39.23-25.35v19.44c-22.34-2.44-43.84-15.1-66.98-39.35-2.08-2.18-5.53-2.26-7.7-.18-2.18,2.08-2.26,5.52-.18,7.7,16.39,17.18,41.51,39.56,74.86,42.77v20.33l39.23-25.35Z"/>
      <path d="M5.45,30.8c12.56,0,28.37,5.03,58.7,41.52,1.08,1.3,2.63,1.96,4.19,1.96,1.23,0,2.46-.41,3.48-1.26,2.31-1.92,2.63-5.36.71-7.67C49.85,38.08,29.76,19.91,5.45,19.91c-3.01,0-5.45,2.44-5.45,5.45s2.44,5.45,5.45,5.45Z"/>
    </g>
  </g>
</svg>