<?xml version="1.0" encoding="UTF-8"?>
<svg id="Ebene_2" data-name="Ebene 2" xmlns="http://www.w3.org/2000/svg" viewBox="0 0 249.08 198.8">
  <g id="Layer_1" data-name="Layer 1">
    <g>
      <path d="M128,198.07c.84.49,1.79.73,2.73.73s1.88-.24,2.72-.73c1.69-.97,2.73-2.77,2.73-4.72V5.45c0-1.95-1.04-3.75-2.73-4.72-1.69-.97-3.77-.97-5.45,0L51.65,44.93H5.45c-3.01,0-5.45,2.44-5.45,5.45v98.04c0,3.01,2.44,5.45,5.45,5.45h46.2l76.36,44.2ZM10.89,55.83h42.22c.96,0,1.9-.25,2.73-.73L125.28,14.89v169.02l-69.45-40.2c-.83-.48-1.77-.73-2.73-.73H10.89V55.83Z"/>
      <path d="M165.46,159.55c-2.6,1.51-3.49,4.84-1.99,7.44,1.01,1.74,2.84,2.72,4.72,2.72.92,0,1.86-.24,2.72-.73,24.78-14.33,40.17-40.99,40.17-69.58s-15.39-55.25-40.16-69.58c-2.6-1.51-5.93-.62-7.44,1.99-1.51,2.6-.62,5.94,1.99,7.44,21.42,12.39,34.72,35.44,34.72,60.15s-13.31,47.76-34.73,60.15Z"/>
      <path d="M196.39.93c-2.49-1.67-5.88-1-7.55,1.5-1.67,2.5-1,5.88,1.5,7.55,29.96,20.01,47.85,53.43,47.85,89.41s-17.71,69.05-47.38,89.1c-2.49,1.68-3.15,5.07-1.46,7.56,1.05,1.56,2.77,2.4,4.52,2.4,1.05,0,2.11-.3,3.04-.93,32.67-22.07,52.17-58.75,52.17-98.12S229.38,22.97,196.39.93Z"/>
    </g>
  </g>
</svg>